# 3ds Max Wavefront OBJ Exporter v0.97b - (c)2007 guruware
# File Created: 08.04.2019 21:15:19

mtllib plasticTables.mtl

#
# object TableOpti011
#

v  -6299.7153 787.8618 -4796.1714
v  1846.2507 787.8618 -4796.1714
v  1846.2507 787.8618 -5096.1040
v  -6299.7153 787.8618 -5096.1040
# 4 vertices

vn 0.0000 1.0000 -0.0000
# 1 vertex normals

vt 0.0000 0.0000 0.0000
vt 369.3331 0.0000 0.0000
vt 369.3331 30.0000 0.0000
vt 0.0000 30.0000 0.0000
# 4 texture coords

g TableOpti011
usemtl wire_040040040
s 4
f 1/1/1 2/2/1 3/3/1 4/4/1 
# 1 polygons

#
# object TableOpti027
#

v  3173.5410 787.8618 -4796.1714
v  4689.5342 787.8618 -4796.1714
v  4689.5342 787.8618 -5096.1040
v  3173.5410 787.8618 -5096.1040
v  3173.5410 319.1308 -3859.1655
v  4689.5342 319.1309 -3859.1655
v  4689.5342 319.1309 -4159.0981
v  3173.5410 319.1308 -4159.0981
v  3173.5410 -149.6001 -2922.1597
v  4689.5342 -149.6001 -2922.1597
v  4689.5342 -149.6001 -3222.0920
v  3173.5410 -149.6001 -3222.0920
v  3173.5410 -618.3312 -1985.1536
v  4689.5342 -618.3312 -1985.1536
v  4689.5342 -618.3312 -2285.0862
v  3173.5410 -618.3312 -2285.0862
v  3173.5410 -1087.0620 -1048.1470
v  4689.5342 -1087.0620 -1048.1472
v  4689.5342 -1087.0620 -1348.0798
v  3173.5410 -1087.0620 -1348.0798
v  3173.5410 -1582.9825 -36.8555
v  4689.5342 -1582.9825 -36.8555
v  4689.5342 -1582.9825 -336.7886
v  3173.5410 -1582.9825 -336.7886
# 24 vertices

vn -0.0000 1.0000 -0.0000
vn 0.0000 1.0000 -0.0000
# 2 vertex normals

vt 0.0000 0.0000 0.0000
vt 369.3331 0.0000 0.0000
vt 369.3331 30.0000 0.0000
vt 0.0000 30.0000 0.0000
# 4 texture coords

g TableOpti027
usemtl wire_040040040
s 4
f 5/5/2 6/6/2 7/7/2 8/8/2 
f 9/5/2 10/6/2 11/7/2 12/8/2 
f 13/5/3 14/6/3 15/7/3 16/8/3 
f 17/5/3 18/6/3 19/7/3 20/8/3 
f 21/5/3 22/6/3 23/7/3 24/8/3 
f 25/5/3 26/6/3 27/7/3 28/8/3 
# 6 polygons

#
# object TableOpti028
#

v  -19952.8340 787.8618 -4796.1714
v  -18436.8418 787.8618 -4796.1714
v  -18436.8418 787.8618 -5096.1040
v  -19952.8340 787.8618 -5096.1040
v  -19952.8340 319.1308 -3859.1655
v  -18436.8418 319.1309 -3859.1655
v  -18436.8418 319.1309 -4159.0981
v  -19952.8340 319.1308 -4159.0981
v  -19952.8340 -149.6001 -2922.1597
v  -18436.8418 -149.6001 -2922.1597
v  -18436.8418 -149.6001 -3222.0920
v  -19952.8340 -149.6001 -3222.0920
v  -19952.8340 -618.3312 -1985.1536
v  -18436.8418 -618.3312 -1985.1536
v  -18436.8418 -618.3312 -2285.0862
v  -19952.8340 -618.3312 -2285.0862
v  -19952.8340 -1087.0620 -1048.1470
v  -18436.8418 -1087.0620 -1048.1472
v  -18436.8418 -1087.0620 -1348.0798
v  -19952.8340 -1087.0620 -1348.0798
v  -19952.8340 -1578.3190 -32.9463
v  -18436.8418 -1578.3190 -32.9463
v  -18436.8418 -1578.3190 -332.8789
v  -19952.8340 -1578.3190 -332.8789
# 24 vertices

vn -0.0000 1.0000 -0.0000
vn 0.0000 1.0000 -0.0000
# 2 vertex normals

vt 0.0000 0.0000 0.0000
vt 369.3331 0.0000 0.0000
vt 369.3331 30.0000 0.0000
vt 0.0000 30.0000 0.0000
# 4 texture coords

g TableOpti028
usemtl wire_040040040
s 4
f 29/9/4 30/10/4 31/11/4 32/12/4 
f 33/9/4 34/10/4 35/11/4 36/12/4 
f 37/9/5 38/10/5 39/11/5 40/12/5 
f 41/9/5 42/10/5 43/11/5 44/12/5 
f 45/9/5 46/10/5 47/11/5 48/12/5 
f 49/9/5 50/10/5 51/11/5 52/12/5 
# 6 polygons

#
# object TableOpti029
#

v  -6299.7153 318.9977 -3859.0337
v  1846.2507 318.9977 -3859.0337
v  1846.2507 318.9977 -4158.9663
v  -6299.7153 318.9977 -4158.9663
# 4 vertices

vn 0.0000 1.0000 -0.0000
# 1 vertex normals

vt 0.0000 0.0000 0.0000
vt 369.3331 0.0000 0.0000
vt 369.3331 30.0000 0.0000
vt 0.0000 30.0000 0.0000
# 4 texture coords

g TableOpti029
usemtl wire_040040040
s 4
f 53/13/6 54/14/6 55/15/6 56/16/6 
# 1 polygons

#
# object TableOpti030
#

v  -6299.7153 -150.0023 -2922.0337
v  1846.2507 -150.0023 -2922.0337
v  1846.2507 -150.0023 -3221.9663
v  -6299.7153 -150.0023 -3221.9663
# 4 vertices

vn 0.0000 1.0000 -0.0000
# 1 vertex normals

vt 0.0000 0.0000 0.0000
vt 369.3331 0.0000 0.0000
vt 369.3331 30.0000 0.0000
vt 0.0000 30.0000 0.0000
# 4 texture coords

g TableOpti030
usemtl wire_040040040
s 4
f 57/17/7 58/18/7 59/19/7 60/20/7 
# 1 polygons

#
# object TableOpti031
#

v  -6299.7153 -618.0023 -1985.0337
v  1846.2507 -618.0023 -1985.0337
v  1846.2507 -618.0023 -2284.9663
v  -6299.7153 -618.0023 -2284.9663
# 4 vertices

vn 0.0000 1.0000 -0.0000
# 1 vertex normals

vt 0.0000 0.0000 0.0000
vt 369.3331 0.0000 0.0000
vt 369.3331 30.0000 0.0000
vt 0.0000 30.0000 0.0000
# 4 texture coords

g TableOpti031
usemtl wire_040040040
s 4
f 61/21/8 62/22/8 63/23/8 64/24/8 
# 1 polygons

#
# object TableOpti032
#

v  -6299.7153 -1087.0023 -1048.0337
v  1846.2507 -1087.0023 -1048.0337
v  1846.2507 -1087.0023 -1347.9663
v  -6299.7153 -1087.0023 -1347.9663
# 4 vertices

vn 0.0000 1.0000 -0.0000
# 1 vertex normals

vt 0.0000 0.0000 0.0000
vt 369.3331 0.0000 0.0000
vt 369.3331 30.0000 0.0000
vt 0.0000 30.0000 0.0000
# 4 texture coords

g TableOpti032
usemtl wire_040040040
s 4
f 65/25/9 66/26/9 67/27/9 68/28/9 
# 1 polygons

#
# object TableOpti033
#

v  -6299.7153 -1556.0024 -111.0338
v  1846.2507 -1556.0024 -111.0338
v  1846.2507 -1556.0024 -410.9662
v  -6299.7153 -1556.0024 -410.9662
# 4 vertices

vn 0.0000 1.0000 -0.0000
# 1 vertex normals

vt 0.0000 0.0000 0.0000
vt 369.3331 0.0000 0.0000
vt 369.3331 30.0000 0.0000
vt 0.0000 30.0000 0.0000
# 4 texture coords

g TableOpti033
usemtl wire_040040040
s 4
f 69/29/10 70/30/10 71/31/10 72/32/10 
# 1 polygons

#
# object TableOpti034
#

v  -6299.7153 -2025.0024 825.9662
v  1846.2507 -2025.0024 825.9662
v  1846.2507 -2025.0024 526.0338
v  -6299.7153 -2025.0024 526.0338
# 4 vertices

vn 0.0000 1.0000 -0.0000
# 1 vertex normals

vt 0.0000 0.0000 0.0000
vt 369.3331 0.0000 0.0000
vt 369.3331 30.0000 0.0000
vt 0.0000 30.0000 0.0000
# 4 texture coords

g TableOpti034
usemtl wire_040040040
s 4
f 73/33/11 74/34/11 75/35/11 76/36/11 
# 1 polygons

#
# object TableOpti035
#

v  -6299.7153 -2493.0022 1762.9663
v  1846.2507 -2493.0022 1762.9663
v  1846.2507 -2493.0022 1463.0337
v  -6299.7153 -2493.0022 1463.0337
# 4 vertices

vn 0.0000 1.0000 -0.0000
# 1 vertex normals

vt 0.0000 0.0000 0.0000
vt 369.3331 0.0000 0.0000
vt 369.3331 30.0000 0.0000
vt 0.0000 30.0000 0.0000
# 4 texture coords

g TableOpti035
usemtl wire_040040040
s 4
f 77/37/12 78/38/12 79/39/12 80/40/12 
# 1 polygons

#
# object TableOpti036
#

v  -6299.7153 -2962.0022 2699.9663
v  1846.2507 -2962.0022 2699.9663
v  1846.2507 -2962.0022 2400.0337
v  -6299.7153 -2962.0022 2400.0337
# 4 vertices

vn 0.0000 1.0000 -0.0000
# 1 vertex normals

vt 0.0000 0.0000 0.0000
vt 369.3331 0.0000 0.0000
vt 369.3331 30.0000 0.0000
vt 0.0000 30.0000 0.0000
# 4 texture coords

g TableOpti036
usemtl wire_040040040
s 4
f 81/41/13 82/42/13 83/43/13 84/44/13 
# 1 polygons

#
# object TableOpti037
#

v  -6299.7153 -3431.0022 3636.9663
v  1846.2507 -3431.0022 3636.9663
v  1846.2507 -3431.0022 3337.0337
v  -6299.7153 -3431.0022 3337.0337
# 4 vertices

vn 0.0000 1.0000 -0.0000
# 1 vertex normals

vt 0.0000 0.0000 0.0000
vt 369.3331 0.0000 0.0000
vt 369.3331 30.0000 0.0000
vt 0.0000 30.0000 0.0000
# 4 texture coords

g TableOpti037
usemtl wire_040040040
s 4
f 85/45/14 86/46/14 87/47/14 88/48/14 
# 1 polygons

#
# object TableOpti038
#

v  -6299.7153 -3899.0022 4573.9663
v  1846.2507 -3899.0022 4573.9663
v  1846.2507 -3899.0022 4274.0337
v  -6299.7153 -3899.0022 4274.0337
# 4 vertices

vn 0.0000 1.0000 -0.0000
# 1 vertex normals

vt 0.0000 0.0000 0.0000
vt 369.3331 0.0000 0.0000
vt 369.3331 30.0000 0.0000
vt 0.0000 30.0000 0.0000
# 4 texture coords

g TableOpti038
usemtl wire_040040040
s 4
f 89/49/15 90/50/15 91/51/15 92/52/15 
# 1 polygons

#
# object TableOpti040
#

v  -17147.1133 -3899.0022 4573.9663
v  -9001.1475 -3899.0022 4573.9663
v  -9001.1475 -3899.0022 4274.0337
v  -17147.1133 -3899.0022 4274.0337
# 4 vertices

vn 0.0000 1.0000 -0.0000
# 1 vertex normals

vt 0.0000 0.0000 0.0000
vt 369.3331 0.0000 0.0000
vt 369.3331 30.0000 0.0000
vt 0.0000 30.0000 0.0000
# 4 texture coords

g TableOpti040
usemtl wire_040040040
s 4
f 93/53/16 94/54/16 95/55/16 96/56/16 
# 1 polygons

#
# object TableOpti041
#

v  -17147.1133 -3431.0022 3636.9663
v  -9001.1475 -3431.0022 3636.9663
v  -9001.1475 -3431.0022 3337.0337
v  -17147.1133 -3431.0022 3337.0337
# 4 vertices

vn 0.0000 1.0000 -0.0000
# 1 vertex normals

vt 0.0000 0.0000 0.0000
vt 369.3331 0.0000 0.0000
vt 369.3331 30.0000 0.0000
vt 0.0000 30.0000 0.0000
# 4 texture coords

g TableOpti041
usemtl wire_040040040
s 4
f 97/57/17 98/58/17 99/59/17 100/60/17 
# 1 polygons

#
# object TableOpti042
#

v  -17147.1133 -2962.0022 2699.9663
v  -9001.1475 -2962.0022 2699.9663
v  -9001.1475 -2962.0022 2400.0337
v  -17147.1133 -2962.0022 2400.0337
# 4 vertices

vn 0.0000 1.0000 -0.0000
# 1 vertex normals

vt 0.0000 0.0000 0.0000
vt 369.3331 0.0000 0.0000
vt 369.3331 30.0000 0.0000
vt 0.0000 30.0000 0.0000
# 4 texture coords

g TableOpti042
usemtl wire_040040040
s 4
f 101/61/18 102/62/18 103/63/18 104/64/18 
# 1 polygons

#
# object TableOpti043
#

v  -17147.1133 -2493.0022 1762.9663
v  -9001.1475 -2493.0022 1762.9663
v  -9001.1475 -2493.0022 1463.0337
v  -17147.1133 -2493.0022 1463.0337
# 4 vertices

vn 0.0000 1.0000 -0.0000
# 1 vertex normals

vt 0.0000 0.0000 0.0000
vt 369.3331 0.0000 0.0000
vt 369.3331 30.0000 0.0000
vt 0.0000 30.0000 0.0000
# 4 texture coords

g TableOpti043
usemtl wire_040040040
s 4
f 105/65/19 106/66/19 107/67/19 108/68/19 
# 1 polygons

#
# object TableOpti044
#

v  -17147.1133 -2025.0024 825.9662
v  -9001.1475 -2025.0024 825.9662
v  -9001.1475 -2025.0024 526.0338
v  -17147.1133 -2025.0024 526.0338
# 4 vertices

vn 0.0000 1.0000 -0.0000
# 1 vertex normals

vt 0.0000 0.0000 0.0000
vt 369.3331 0.0000 0.0000
vt 369.3331 30.0000 0.0000
vt 0.0000 30.0000 0.0000
# 4 texture coords

g TableOpti044
usemtl wire_040040040
s 4
f 109/69/20 110/70/20 111/71/20 112/72/20 
# 1 polygons

#
# object TableOpti045
#

v  -17147.1133 -1556.0024 -111.0338
v  -9001.1475 -1556.0024 -111.0338
v  -9001.1475 -1556.0024 -410.9662
v  -17147.1133 -1556.0024 -410.9662
# 4 vertices

vn 0.0000 1.0000 -0.0000
# 1 vertex normals

vt 0.0000 0.0000 0.0000
vt 369.3331 0.0000 0.0000
vt 369.3331 30.0000 0.0000
vt 0.0000 30.0000 0.0000
# 4 texture coords

g TableOpti045
usemtl wire_040040040
s 4
f 113/73/21 114/74/21 115/75/21 116/76/21 
# 1 polygons

#
# object TableOpti046
#

v  -17147.1133 -1087.0023 -1048.0337
v  -9001.1475 -1087.0023 -1048.0337
v  -9001.1475 -1087.0023 -1347.9663
v  -17147.1133 -1087.0023 -1347.9663
# 4 vertices

vn 0.0000 1.0000 -0.0000
# 1 vertex normals

vt 0.0000 0.0000 0.0000
vt 369.3331 0.0000 0.0000
vt 369.3331 30.0000 0.0000
vt 0.0000 30.0000 0.0000
# 4 texture coords

g TableOpti046
usemtl wire_040040040
s 4
f 117/77/22 118/78/22 119/79/22 120/80/22 
# 1 polygons

#
# object TableOpti047
#

v  -17147.1133 -618.0023 -1985.0337
v  -9001.1475 -618.0023 -1985.0337
v  -9001.1475 -618.0023 -2284.9663
v  -17147.1133 -618.0023 -2284.9663
# 4 vertices

vn 0.0000 1.0000 -0.0000
# 1 vertex normals

vt 0.0000 0.0000 0.0000
vt 369.3331 0.0000 0.0000
vt 369.3331 30.0000 0.0000
vt 0.0000 30.0000 0.0000
# 4 texture coords

g TableOpti047
usemtl wire_040040040
s 4
f 121/81/23 122/82/23 123/83/23 124/84/23 
# 1 polygons

#
# object TableOpti048
#

v  -17147.1133 -150.0023 -2922.0337
v  -9001.1475 -150.0023 -2922.0337
v  -9001.1475 -150.0023 -3221.9663
v  -17147.1133 -150.0023 -3221.9663
# 4 vertices

vn 0.0000 1.0000 -0.0000
# 1 vertex normals

vt 0.0000 0.0000 0.0000
vt 369.3331 0.0000 0.0000
vt 369.3331 30.0000 0.0000
vt 0.0000 30.0000 0.0000
# 4 texture coords

g TableOpti048
usemtl wire_040040040
s 4
f 125/85/24 126/86/24 127/87/24 128/88/24 
# 1 polygons

#
# object TableOpti049
#

v  -17147.1133 318.9977 -3859.0337
v  -9001.1475 318.9977 -3859.0337
v  -9001.1475 318.9977 -4158.9663
v  -17147.1133 318.9977 -4158.9663
# 4 vertices

vn 0.0000 1.0000 -0.0000
# 1 vertex normals

vt 0.0000 0.0000 0.0000
vt 369.3331 0.0000 0.0000
vt 369.3331 30.0000 0.0000
vt 0.0000 30.0000 0.0000
# 4 texture coords

g TableOpti049
usemtl wire_040040040
s 4
f 129/89/25 130/90/25 131/91/25 132/92/25 
# 1 polygons

#
# object TableOpti050
#

v  -17147.1133 787.9977 -4796.0337
v  -9001.1475 787.9977 -4796.0337
v  -9001.1475 787.9977 -5095.9663
v  -17147.1133 787.9977 -5095.9663
# 4 vertices

vn 0.0000 1.0000 -0.0000
# 1 vertex normals

vt 0.0000 0.0000 0.0000
vt 369.3331 0.0000 0.0000
vt 369.3331 30.0000 0.0000
vt 0.0000 30.0000 0.0000
# 4 texture coords

g TableOpti050
usemtl wire_040040040
s 4
f 133/93/26 134/94/26 135/95/26 136/96/26 
# 1 polygons

