# 3ds Max Wavefront OBJ Exporter v0.97b - (c)2007 guruware
# File Created: 08.04.2019 21:10:33

mtllib redGround.mtl

#
# object RedGround
#

v  -18469.2461 0.0000 -4707.2271
v  3212.3491 0.0000 -4707.2271
v  3212.3496 0.0000 -5601.7974
v  -18469.2441 0.0000 -5601.7974
v  3169.2703 -5135.9204 4756.2505
v  -18426.1680 -5135.9204 4756.2505
v  -18426.1699 -5135.9204 9195.5039
v  3169.2708 -5135.9204 9195.5039
v  3231.0735 0.0000 -5623.1040
v  -18487.9727 0.0000 -5623.1040
v  4708.1641 0.0000 -4707.2271
v  4708.1641 0.0000 -5601.7974
v  -19965.0605 0.0000 -5601.7974
v  -19965.0605 0.0000 -4707.2271
v  -19916.0391 -5135.9204 4756.2505
v  -19916.0410 -5135.9204 9195.5039
v  4659.1406 -5135.9204 9195.5039
v  4659.1406 -5135.9204 4756.2505
# 18 vertices

vn 0.0000 1.0000 -0.0000
# 1 vertex normals

vt -10.3453 6.8511 1.1025
vt 11.3363 6.8511 1.1025
vt 11.3363 7.7457 1.1025
vt -10.3453 7.7457 1.1025
vt 11.2932 -2.6124 -4.0334
vt -10.3022 -2.6124 -4.0334
vt -10.3022 -7.0516 -4.0334
vt 11.2932 -7.0516 -4.0334
vt 11.3550 7.7670 1.1025
vt -10.3640 7.7670 1.1025
vt 12.8321 6.8511 1.1025
vt 12.8321 7.7457 1.1025
vt -11.8411 7.7457 1.1025
vt -11.8411 6.8511 1.1025
vt -11.7921 -2.6124 -4.0334
vt -11.7921 -7.0516 -4.0334
vt 12.7831 -7.0516 -4.0334
vt 12.7831 -2.6124 -4.0334
# 18 texture coords

g RedGround
usemtl wire_045000000
s off
f 1/1/1 2/2/1 3/3/1 4/4/1 
f 5/5/1 6/6/1 7/7/1 8/8/1 
f 9/9/1 10/10/1 4/4/1 3/3/1 
f 2/2/1 11/11/1 12/12/1 3/3/1 
f 4/4/1 13/13/1 14/14/1 1/1/1 
f 6/6/1 15/15/1 16/16/1 7/7/1 
f 8/8/1 17/17/1 18/18/1 5/5/1 
# 7 polygons

#
# object RedSteps
#

v  3122.9072 -4927.2456 4677.2466
v  1946.0481 -4927.2456 4677.2466
v  1946.0481 -4927.2456 4948.9902
v  3122.9072 -4927.2456 4948.9902
v  3122.9072 -4458.6533 3740.0630
v  1946.0481 -4458.6533 3740.0630
v  1946.0481 -4458.6533 4011.8059
v  3122.9072 -4458.6533 4011.8059
v  3122.9072 -3990.0610 2802.8789
v  1946.0481 -3990.0610 2802.8789
v  1946.0481 -3990.0613 3074.6216
v  3122.9072 -3990.0613 3074.6216
v  3122.9072 -3521.4695 1865.6947
v  1946.0481 -3521.4695 1865.6948
v  1946.0481 -3521.4695 2137.4375
v  3122.9072 -3521.4695 2137.4375
v  3122.9072 -3052.8774 928.5106
v  1946.0481 -3052.8774 928.5106
v  1946.0481 -3052.8774 1200.2532
v  3122.9072 -3052.8774 1200.2532
v  1946.0481 -2584.2854 263.0692
v  3122.9072 -2584.2854 263.0692
v  3122.9072 -2584.2854 -8.6734
v  1946.0481 -2584.2854 -8.6734
v  1946.0481 -241.3253 -4422.8511
v  3122.9072 -241.3253 -4422.8511
v  3122.9072 -241.3252 -4694.5942
v  1946.0481 -241.3252 -4694.5942
v  1946.0481 -709.9174 -3485.6672
v  3122.9072 -709.9174 -3485.6672
v  3122.9072 -709.9174 -3757.4099
v  1946.0481 -709.9174 -3757.4099
v  1946.0481 -1178.5094 -2548.4832
v  3122.9072 -1178.5094 -2548.4832
v  3122.9072 -1178.5094 -2820.2258
v  1946.0481 -1178.5094 -2820.2258
v  1946.0481 -1647.1014 -1611.2992
v  3122.9072 -1647.1014 -1611.2992
v  3122.9072 -1647.1014 -1883.0417
v  1946.0481 -1647.1014 -1883.0416
v  1946.0481 -2115.6934 -674.1150
v  3122.9072 -2115.6934 -674.1150
v  3122.9072 -2115.6934 -945.8577
v  1946.0481 -2115.6934 -945.8576
# 44 vertices

vn 0.0000 1.0000 -0.0000
vn 0.0000 1.0000 0.0000
# 2 vertex normals

vt 11.2468 -2.5334 -3.8248
vt 10.0700 -2.5334 -3.8248
vt 10.0700 -2.8051 -3.8248
vt 11.2468 -2.8051 -3.8248
vt 11.2468 -1.5962 -3.3562
vt 10.0700 -1.5962 -3.3562
vt 10.0700 -1.8679 -3.3562
vt 11.2468 -1.8679 -3.3562
vt 11.2468 -0.6590 -2.8876
vt 10.0700 -0.6590 -2.8876
vt 10.0700 -0.9308 -2.8876
vt 11.2468 -0.9308 -2.8876
vt 11.2468 0.2782 -2.4190
vt 10.0700 0.2782 -2.4190
vt 10.0700 0.0064 -2.4190
vt 11.2468 0.0064 -2.4190
vt 11.2468 1.2153 -1.9504
vt 10.0700 1.2153 -1.9504
vt 10.0700 0.9436 -1.9504
vt 11.2468 0.9436 -1.9504
vt 10.0700 1.8808 -1.4818
vt 11.2468 1.8808 -1.4818
vt 11.2468 2.1525 -1.4818
vt 10.0700 2.1525 -1.4818
vt 10.0700 6.5667 0.8612
vt 11.2468 6.5667 0.8612
vt 11.2468 6.8385 0.8612
vt 10.0700 6.8385 0.8612
vt 10.0700 5.6295 0.3926
vt 11.2468 5.6295 0.3926
vt 11.2468 5.9013 0.3926
vt 10.0700 5.9013 0.3926
vt 10.0700 4.6923 -0.0760
vt 11.2468 4.6923 -0.0760
vt 11.2468 4.9641 -0.0760
vt 10.0700 4.9641 -0.0760
vt 10.0700 3.7552 -0.5446
vt 11.2468 3.7552 -0.5446
vt 11.2468 4.0269 -0.5446
vt 10.0700 4.0269 -0.5446
vt 10.0700 2.8180 -1.0132
vt 11.2468 2.8180 -1.0132
vt 11.2468 3.0897 -1.0132
vt 10.0700 3.0897 -1.0132
# 44 texture coords

g RedSteps
usemtl wire_042000000
s 1
f 19/19/2 20/20/2 21/21/2 22/22/2 
f 23/23/2 24/24/2 25/25/2 26/26/2 
f 27/27/3 28/28/3 29/29/3 30/30/3 
f 31/31/2 32/32/2 33/33/2 34/34/2 
f 35/35/2 36/36/2 37/37/2 38/38/2 
f 39/39/2 40/40/2 41/41/2 42/42/2 
f 43/43/3 44/44/3 45/45/3 46/46/3 
f 47/47/2 48/48/2 49/49/2 50/50/2 
f 51/51/2 52/52/2 53/53/2 54/54/2 
f 55/55/2 56/56/2 57/57/2 58/58/2 
f 59/59/2 60/60/2 61/61/2 62/62/2 
# 11 polygons

#
# object RedSteps001
#

v  -7724.5693 -4927.2456 4677.2466
v  -8901.4287 -4927.2456 4677.2466
v  -8901.4287 -4927.2456 4948.9902
v  -7724.5693 -4927.2456 4948.9902
v  -7724.5693 -4458.6533 3740.0630
v  -8901.4287 -4458.6533 3740.0630
v  -8901.4287 -4458.6533 4011.8059
v  -7724.5693 -4458.6533 4011.8059
v  -7724.5693 -3990.0610 2802.8789
v  -8901.4287 -3990.0610 2802.8789
v  -8901.4287 -3990.0613 3074.6216
v  -7724.5693 -3990.0613 3074.6216
v  -7724.5693 -3521.4695 1865.6947
v  -8901.4287 -3521.4695 1865.6948
v  -8901.4287 -3521.4695 2137.4375
v  -7724.5693 -3521.4695 2137.4375
v  -7724.5693 -3052.8774 928.5106
v  -8901.4287 -3052.8774 928.5106
v  -8901.4287 -3052.8774 1200.2532
v  -7724.5693 -3052.8774 1200.2532
v  -8901.4287 -2584.2854 263.0692
v  -7724.5693 -2584.2854 263.0692
v  -7724.5693 -2584.2854 -8.6734
v  -8901.4287 -2584.2854 -8.6734
v  -8901.4287 -241.3253 -4422.8511
v  -7724.5693 -241.3253 -4422.8511
v  -7724.5693 -241.3252 -4694.5942
v  -8901.4287 -241.3252 -4694.5942
v  -8901.4287 -709.9174 -3485.6672
v  -7724.5693 -709.9174 -3485.6672
v  -7724.5693 -709.9174 -3757.4099
v  -8901.4287 -709.9174 -3757.4099
v  -8901.4287 -1178.5094 -2548.4832
v  -7724.5693 -1178.5094 -2548.4832
v  -7724.5693 -1178.5094 -2820.2258
v  -8901.4287 -1178.5094 -2820.2258
v  -8901.4287 -1647.1014 -1611.2992
v  -7724.5693 -1647.1014 -1611.2992
v  -7724.5693 -1647.1014 -1883.0417
v  -8901.4287 -1647.1014 -1883.0416
v  -8901.4287 -2115.6934 -674.1150
v  -7724.5693 -2115.6934 -674.1150
v  -7724.5693 -2115.6934 -945.8577
v  -8901.4287 -2115.6934 -945.8576
# 44 vertices

vn 0.0000 1.0000 -0.0000
vn 0.0000 1.0000 0.0000
# 2 vertex normals

vt 0.3994 -2.5334 -3.8248
vt -0.7775 -2.5334 -3.8248
vt -0.7775 -2.8051 -3.8248
vt 0.3994 -2.8051 -3.8248
vt 0.3994 -1.5962 -3.3562
vt -0.7775 -1.5962 -3.3562
vt -0.7775 -1.8679 -3.3562
vt 0.3994 -1.8679 -3.3562
vt 0.3994 -0.6590 -2.8876
vt -0.7775 -0.6590 -2.8876
vt -0.7775 -0.9308 -2.8876
vt 0.3994 -0.9308 -2.8876
vt 0.3994 0.2782 -2.4190
vt -0.7775 0.2782 -2.4190
vt -0.7775 0.0064 -2.4190
vt 0.3994 0.0064 -2.4190
vt 0.3994 1.2153 -1.9504
vt -0.7775 1.2153 -1.9504
vt -0.7775 0.9436 -1.9504
vt 0.3994 0.9436 -1.9504
vt -0.7775 1.8808 -1.4818
vt 0.3994 1.8808 -1.4818
vt 0.3994 2.1525 -1.4818
vt -0.7775 2.1525 -1.4818
vt -0.7775 6.5667 0.8612
vt 0.3994 6.5667 0.8612
vt 0.3994 6.8385 0.8612
vt -0.7775 6.8385 0.8612
vt -0.7775 5.6295 0.3926
vt 0.3994 5.6295 0.3926
vt 0.3994 5.9013 0.3926
vt -0.7775 5.9013 0.3926
vt -0.7775 4.6923 -0.0760
vt 0.3994 4.6923 -0.0760
vt 0.3994 4.9641 -0.0760
vt -0.7775 4.9641 -0.0760
vt -0.7775 3.7552 -0.5446
vt 0.3994 3.7552 -0.5446
vt 0.3994 4.0269 -0.5446
vt -0.7775 4.0269 -0.5446
vt -0.7775 2.8180 -1.0132
vt 0.3994 2.8180 -1.0132
vt 0.3994 3.0897 -1.0132
vt -0.7775 3.0897 -1.0132
# 44 texture coords

g RedSteps001
usemtl wire_042000000
s 1
f 63/63/4 64/64/4 65/65/4 66/66/4 
f 67/67/4 68/68/4 69/69/4 70/70/4 
f 71/71/5 72/72/5 73/73/5 74/74/5 
f 75/75/4 76/76/4 77/77/4 78/78/4 
f 79/79/4 80/80/4 81/81/4 82/82/4 
f 83/83/4 84/84/4 85/85/4 86/86/4 
f 87/87/5 88/88/5 89/89/5 90/90/5 
f 91/91/4 92/92/4 93/93/4 94/94/4 
f 95/95/4 96/96/4 97/97/4 98/98/4 
f 99/99/4 100/100/4 101/101/4 102/102/4 
f 103/103/4 104/104/4 105/105/4 106/106/4 
# 11 polygons

#
# object RedSteps002
#

v  -6356.5703 -4927.2456 4677.2466
v  -7533.4297 -4927.2456 4677.2466
v  -7533.4297 -4927.2456 4948.9902
v  -6356.5703 -4927.2456 4948.9902
v  -6356.5703 -4458.6533 3740.0630
v  -7533.4297 -4458.6533 3740.0630
v  -7533.4297 -4458.6533 4011.8059
v  -6356.5703 -4458.6533 4011.8059
v  -6356.5703 -3990.0610 2802.8789
v  -7533.4297 -3990.0610 2802.8789
v  -7533.4297 -3990.0613 3074.6216
v  -6356.5703 -3990.0613 3074.6216
v  -6356.5703 -3521.4695 1865.6947
v  -7533.4297 -3521.4695 1865.6948
v  -7533.4297 -3521.4695 2137.4375
v  -6356.5703 -3521.4695 2137.4375
v  -6356.5703 -3052.8774 928.5106
v  -7533.4297 -3052.8774 928.5106
v  -7533.4297 -3052.8774 1200.2532
v  -6356.5703 -3052.8774 1200.2532
v  -7533.4297 -2584.2854 263.0692
v  -6356.5703 -2584.2854 263.0692
v  -6356.5703 -2584.2854 -8.6734
v  -7533.4297 -2584.2854 -8.6734
v  -7533.4297 -241.3253 -4422.8511
v  -6356.5703 -241.3253 -4422.8511
v  -6356.5703 -241.3252 -4694.5942
v  -7533.4297 -241.3252 -4694.5942
v  -7533.4297 -709.9174 -3485.6672
v  -6356.5703 -709.9174 -3485.6672
v  -6356.5703 -709.9174 -3757.4099
v  -7533.4297 -709.9174 -3757.4099
v  -7533.4297 -1178.5094 -2548.4832
v  -6356.5703 -1178.5094 -2548.4832
v  -6356.5703 -1178.5094 -2820.2258
v  -7533.4297 -1178.5094 -2820.2258
v  -7533.4297 -1647.1014 -1611.2992
v  -6356.5703 -1647.1014 -1611.2992
v  -6356.5703 -1647.1014 -1883.0417
v  -7533.4297 -1647.1014 -1883.0416
v  -7533.4297 -2115.6934 -674.1150
v  -6356.5703 -2115.6934 -674.1150
v  -6356.5703 -2115.6934 -945.8577
v  -7533.4297 -2115.6934 -945.8576
# 44 vertices

vn 0.0000 1.0000 -0.0000
vn 0.0000 1.0000 0.0000
# 2 vertex normals

vt 1.7674 -2.5334 -3.8248
vt 0.5905 -2.5334 -3.8248
vt 0.5905 -2.8051 -3.8248
vt 1.7674 -2.8051 -3.8248
vt 1.7674 -1.5962 -3.3562
vt 0.5905 -1.5962 -3.3562
vt 0.5905 -1.8679 -3.3562
vt 1.7674 -1.8679 -3.3562
vt 1.7674 -0.6590 -2.8876
vt 0.5905 -0.6590 -2.8876
vt 0.5905 -0.9308 -2.8876
vt 1.7674 -0.9308 -2.8876
vt 1.7674 0.2782 -2.4190
vt 0.5905 0.2782 -2.4190
vt 0.5905 0.0064 -2.4190
vt 1.7674 0.0064 -2.4190
vt 1.7674 1.2153 -1.9504
vt 0.5905 1.2153 -1.9504
vt 0.5905 0.9436 -1.9504
vt 1.7674 0.9436 -1.9504
vt 0.5905 1.8808 -1.4818
vt 1.7674 1.8808 -1.4818
vt 1.7674 2.1525 -1.4818
vt 0.5905 2.1525 -1.4818
vt 0.5905 6.5667 0.8612
vt 1.7674 6.5667 0.8612
vt 1.7674 6.8385 0.8612
vt 0.5905 6.8385 0.8612
vt 0.5905 5.6295 0.3926
vt 1.7674 5.6295 0.3926
vt 1.7674 5.9013 0.3926
vt 0.5905 5.9013 0.3926
vt 0.5905 4.6923 -0.0760
vt 1.7674 4.6923 -0.0760
vt 1.7674 4.9641 -0.0760
vt 0.5905 4.9641 -0.0760
vt 0.5905 3.7552 -0.5446
vt 1.7674 3.7552 -0.5446
vt 1.7674 4.0269 -0.5446
vt 0.5905 4.0269 -0.5446
vt 0.5905 2.8180 -1.0132
vt 1.7674 2.8180 -1.0132
vt 1.7674 3.0897 -1.0132
vt 0.5905 3.0897 -1.0132
# 44 texture coords

g RedSteps002
usemtl wire_042000000
s 1
f 107/107/6 108/108/6 109/109/6 110/110/6 
f 111/111/6 112/112/6 113/113/6 114/114/6 
f 115/115/7 116/116/7 117/117/7 118/118/7 
f 119/119/6 120/120/6 121/121/6 122/122/6 
f 123/123/6 124/124/6 125/125/6 126/126/6 
f 127/127/6 128/128/6 129/129/6 130/130/6 
f 131/131/7 132/132/7 133/133/7 134/134/7 
f 135/135/6 136/136/6 137/137/6 138/138/6 
f 139/139/6 140/140/6 141/141/6 142/142/6 
f 143/143/6 144/144/6 145/145/6 146/146/6 
f 147/147/6 148/148/6 149/149/6 150/150/6 
# 11 polygons

#
# object RedSteps003
#

v  -17204.5703 -4927.2456 4677.2466
v  -18381.4277 -4927.2456 4677.2466
v  -18381.4277 -4927.2456 4948.9902
v  -17204.5703 -4927.2456 4948.9902
v  -17204.5703 -4458.6533 3740.0630
v  -18381.4277 -4458.6533 3740.0630
v  -18381.4277 -4458.6533 4011.8059
v  -17204.5703 -4458.6533 4011.8059
v  -17204.5703 -3990.0610 2802.8789
v  -18381.4277 -3990.0610 2802.8789
v  -18381.4277 -3990.0613 3074.6216
v  -17204.5703 -3990.0613 3074.6216
v  -17204.5703 -3521.4695 1865.6947
v  -18381.4277 -3521.4695 1865.6948
v  -18381.4277 -3521.4695 2137.4375
v  -17204.5703 -3521.4695 2137.4375
v  -17204.5703 -3052.8774 928.5106
v  -18381.4277 -3052.8774 928.5106
v  -18381.4277 -3052.8774 1200.2532
v  -17204.5703 -3052.8774 1200.2532
v  -18381.4277 -2584.2854 263.0692
v  -17204.5703 -2584.2854 263.0692
v  -17204.5703 -2584.2854 -8.6734
v  -18381.4277 -2584.2854 -8.6734
v  -18381.4277 -241.3253 -4422.8511
v  -17204.5703 -241.3253 -4422.8511
v  -17204.5703 -241.3252 -4694.5942
v  -18381.4277 -241.3252 -4694.5942
v  -18381.4277 -709.9174 -3485.6672
v  -17204.5703 -709.9174 -3485.6672
v  -17204.5703 -709.9174 -3757.4099
v  -18381.4277 -709.9174 -3757.4099
v  -18381.4277 -1178.5094 -2548.4832
v  -17204.5703 -1178.5094 -2548.4832
v  -17204.5703 -1178.5094 -2820.2258
v  -18381.4277 -1178.5094 -2820.2258
v  -18381.4277 -1647.1014 -1611.2992
v  -17204.5703 -1647.1014 -1611.2992
v  -17204.5703 -1647.1014 -1883.0417
v  -18381.4277 -1647.1014 -1883.0416
v  -18381.4277 -2115.6934 -674.1150
v  -17204.5703 -2115.6934 -674.1150
v  -17204.5703 -2115.6934 -945.8577
v  -18381.4277 -2115.6934 -945.8576
# 44 vertices

vn 0.0000 1.0000 -0.0000
vn 0.0000 1.0000 0.0000
# 2 vertex normals

vt -9.0806 -2.5334 -3.8248
vt -10.2575 -2.5334 -3.8248
vt -10.2575 -2.8051 -3.8248
vt -9.0806 -2.8051 -3.8248
vt -9.0806 -1.5962 -3.3562
vt -10.2575 -1.5962 -3.3562
vt -10.2575 -1.8679 -3.3562
vt -9.0806 -1.8679 -3.3562
vt -9.0806 -0.6590 -2.8876
vt -10.2575 -0.6590 -2.8876
vt -10.2575 -0.9308 -2.8876
vt -9.0806 -0.9308 -2.8876
vt -9.0806 0.2782 -2.4190
vt -10.2575 0.2782 -2.4190
vt -10.2575 0.0064 -2.4190
vt -9.0806 0.0064 -2.4190
vt -9.0806 1.2154 -1.9504
vt -10.2575 1.2154 -1.9504
vt -10.2575 0.9436 -1.9504
vt -9.0806 0.9436 -1.9504
vt -10.2575 1.8808 -1.4818
vt -9.0806 1.8808 -1.4818
vt -9.0806 2.1525 -1.4818
vt -10.2575 2.1525 -1.4818
vt -10.2575 6.5667 0.8612
vt -9.0806 6.5667 0.8612
vt -9.0806 6.8385 0.8612
vt -10.2575 6.8385 0.8612
vt -10.2575 5.6295 0.3926
vt -9.0806 5.6295 0.3926
vt -9.0806 5.9013 0.3926
vt -10.2575 5.9013 0.3926
vt -10.2575 4.6923 -0.0760
vt -9.0806 4.6923 -0.0760
vt -9.0806 4.9641 -0.0760
vt -10.2575 4.9641 -0.0760
vt -10.2575 3.7552 -0.5446
vt -9.0806 3.7552 -0.5446
vt -9.0806 4.0269 -0.5446
vt -10.2575 4.0269 -0.5446
vt -10.2575 2.8180 -1.0132
vt -9.0806 2.8180 -1.0132
vt -9.0806 3.0897 -1.0132
vt -10.2575 3.0897 -1.0132
# 44 texture coords

g RedSteps003
usemtl wire_042000000
s 1
f 151/151/8 152/152/8 153/153/8 154/154/8 
f 155/155/8 156/156/8 157/157/8 158/158/8 
f 159/159/9 160/160/9 161/161/9 162/162/9 
f 163/163/8 164/164/8 165/165/8 166/166/8 
f 167/167/8 168/168/8 169/169/8 170/170/8 
f 171/171/8 172/172/8 173/173/8 174/174/8 
f 175/175/9 176/176/9 177/177/9 178/178/9 
f 179/179/8 180/180/8 181/181/8 182/182/8 
f 183/183/8 184/184/8 185/185/8 186/186/8 
f 187/187/8 188/188/8 189/189/8 190/190/8 
f 191/191/8 192/192/8 193/193/8 194/194/8 
# 11 polygons

